<svg xmlns="http://www.w3.org/2000/svg" viewBox="0 0 48 48"><title>Punching Ball</title><g id="Punching_Ball" data-name="Punching Ball"><path d="M26.499,13.7227A1.0011,1.0011,0,0,0,25.5381,13H22.4619a1,1,0,0,0-.96.7188C21.3594,14.207,18,25.76,18,33c0,6.7866,2.1025,14,6,14s6-7.2134,6-14C30,25.94,26.6416,14.2183,26.499,13.7227Z"/><path d="M19.582,13.1582c.0068-.023.0183-.0435.0256-.0663a.9887.9887,0,0,0-.4035.3021C18.8281,13.8877,10,25.5684,10,33a14.01,14.01,0,0,0,9.1689,13.1229C17.0176,43.0313,16,37.9011,16,33,16,25.6387,19.2158,14.4141,19.582,13.1582Z"/><path d="M28.392,13.0925c.008.0251.0206.0477.028.0731C28.7871,14.4429,32,25.8174,32,33c0,4.9011-1.0176,10.0313-3.1689,13.1229A14.01,14.01,0,0,0,38,33c0-7.25-8.8242-19.0991-9.2-19.6A.9821.9821,0,0,0,28.392,13.0925Z"/><path d="M28,11a2,2,0,0,0-2-2V1H22V9a2,2,0,0,0-2,2Z"/><path d="M20,1H7A1,1,0,0,0,6,2V4A1,1,0,0,0,7,5H20Z"/><path d="M41,1H28V5H41a1,1,0,0,0,1-1V2A1,1,0,0,0,41,1Z"/></g></svg>