<svg width="197" height="196" viewBox="0 0 197 196" fill="none" xmlns="http://www.w3.org/2000/svg">
<path d="M100.135 56.8075C100.924 56.8075 101.742 56.8356 102.532 56.8919C104.167 56.9762 105.577 55.8232 105.775 54.2202L109.892 21.9351C109.892 21.9351 108.961 21.8226 107.551 21.6539C106.846 21.5976 106.029 21.5414 105.154 21.4851C104.703 21.457 104.252 21.4289 103.801 21.4008C103.35 21.4008 102.87 21.3727 102.391 21.3727C101.46 21.3445 100.501 21.3164 99.6271 21.3164C98.7529 21.3445 97.9069 21.3445 97.2019 21.3727C96.8353 21.3727 96.5251 21.4008 96.2431 21.4008C95.9611 21.4289 95.7073 21.4289 95.5099 21.457C95.0869 21.4851 94.8613 21.5133 94.8613 21.5133L97.0045 53.9952C97.1173 55.6263 98.4991 56.8637 100.135 56.8637C100.107 56.8075 100.107 56.8075 100.135 56.8075Z" fill="#01EACB"/>
<path d="M38.4312 113.757C38.4876 113.953 38.544 114.263 38.6286 114.628C38.826 115.331 39.0798 116.288 39.3336 117.244C39.6438 118.172 39.9258 119.1 40.1514 119.803C40.2642 120.169 40.377 120.45 40.4616 120.647C40.5462 120.844 40.5744 120.956 40.5744 120.956L57.579 114.769C58.9608 114.263 59.7222 112.772 59.2992 111.366L59.271 111.31C58.848 109.904 57.4098 109.06 55.9716 109.369L38.3184 113.419C38.3466 113.419 38.3748 113.56 38.4312 113.757Z" fill="#615BF5"/>
<path d="M112.176 58.5236C113.586 58.9455 115.08 58.1862 115.588 56.8081L121.735 40.0469C121.735 40.0469 121.623 39.9907 121.425 39.9344C121.228 39.85 120.946 39.7376 120.579 39.6251C119.874 39.4001 118.944 39.0907 118.013 38.8095C117.054 38.5564 116.124 38.3033 115.39 38.1064C115.024 37.9939 114.742 37.9377 114.516 37.9096C114.319 37.8533 114.178 37.8252 114.178 37.8252L110.173 55.2051C109.835 56.6394 110.709 58.1018 112.119 58.5236H112.176Z" fill="#615BF5"/>
<path d="M83.9751 59.9573C86.5413 58.9167 87.8949 56.1326 87.1617 53.489L81.1833 32.0312C81.1833 32.0312 80.9295 32.0875 80.5065 32.2C80.0835 32.3125 79.4913 32.5093 78.7581 32.7343C78.3915 32.8468 77.9967 32.9874 77.6019 33.0999C77.1789 33.2405 76.7559 33.3811 76.3047 33.5499C75.4305 33.8874 74.4717 34.253 73.5411 34.5904C72.6105 34.9842 71.6799 35.406 70.8339 35.7716C69.9597 36.1653 69.1983 36.559 68.4933 36.8965C67.8165 37.234 67.2525 37.5152 66.8577 37.7402C66.4629 37.9652 66.2373 38.0777 66.2373 38.0777L76.9815 57.595C78.3069 60.0135 81.2679 61.0541 83.8341 60.0135L83.9751 59.9573Z" fill="#615BF5"/>
<path d="M147.004 57.0889C146.863 56.9483 146.666 56.7233 146.412 56.4702C145.932 55.964 145.284 55.289 144.635 54.6141C143.958 53.9672 143.282 53.3204 142.774 52.8423C142.52 52.5892 142.323 52.3924 142.154 52.2799C141.984 52.1393 141.9 52.083 141.9 52.083L129.971 65.4695C129.041 66.5382 129.069 68.1412 130.084 69.1255L130.112 69.1536C131.099 70.1379 132.707 70.1942 133.75 69.238L147.145 57.3139C147.201 57.342 147.145 57.2295 147.004 57.0889Z" fill="#615BF5"/>
<path d="M124.218 64.2324C125.121 64.8511 126.361 64.6542 127.038 63.7824L162.88 16.8734C162.88 16.8734 162.401 16.5078 161.668 15.9454C160.935 15.411 159.948 14.708 158.932 14.033C157.945 13.3299 156.93 12.655 156.169 12.1769C155.407 11.6988 154.872 11.3613 154.872 11.3613L123.57 61.4201C122.977 62.3481 123.231 63.5856 124.162 64.2043L124.218 64.2324Z" fill="#615BF5"/>
<path d="M161.33 72.1342C161.189 71.7967 161.048 71.4874 160.935 71.2343C160.822 70.9531 160.681 70.7281 160.597 70.5593C160.399 70.1937 160.315 69.9688 160.315 69.9688L143.028 78.3775C140.518 79.5868 139.334 82.4834 140.264 85.0989L140.293 85.1832C141.223 87.7987 143.959 89.3173 146.666 88.6986L165.419 84.4802C165.419 84.4802 165.362 84.2552 165.278 83.8333C165.193 83.4115 165.024 82.849 164.855 82.146C164.77 81.8085 164.657 81.4148 164.545 81.0211C164.432 80.6273 164.319 80.2055 164.178 79.7836C163.896 78.9118 163.614 78.0119 163.304 77.0838C162.965 76.1839 162.627 75.284 162.289 74.4403C161.978 73.5685 161.612 72.8092 161.33 72.1342Z" fill="#615BF5"/>
<path d="M60.9929 82.4843C61.8953 80.3751 61.0493 77.9565 59.0471 76.8597L38.6021 65.6387C38.6021 65.6387 38.4893 65.8637 38.2637 66.2574C38.0381 66.6511 37.7561 67.2136 37.4177 67.8885C37.0793 68.5635 36.6845 69.3509 36.2897 70.2227C35.9231 71.0945 35.5001 72.0226 35.1053 72.9225C34.7387 73.8506 34.4003 74.8067 34.0619 75.6786C33.8927 76.1285 33.7517 76.5504 33.6107 76.9722C33.4697 77.3941 33.3569 77.7597 33.2441 78.1252C33.0185 78.8564 32.8211 79.447 32.7083 79.8689C32.5955 80.2907 32.5391 80.5438 32.5391 80.5438L53.1815 86.2528C56.3399 87.1246 59.6957 85.5216 60.9929 82.4843Z" fill="#615BF5"/>
<path d="M152.616 118.426C152.616 118.426 152.644 118.341 152.7 118.201C152.757 118.06 152.841 117.835 152.926 117.582C153.095 117.048 153.321 116.345 153.546 115.642C153.659 115.304 153.772 114.938 153.856 114.601C153.941 114.264 154.026 113.954 154.11 113.673C154.251 113.139 154.364 112.773 154.364 112.773L143.676 110.129C142.464 109.82 141.223 110.523 140.856 111.732L140.828 111.789C140.461 112.97 141.11 114.264 142.266 114.685L152.616 118.426Z" fill="#615BF5"/>
<path d="M124.641 133.977C123.428 134.821 123.09 136.48 123.879 137.717L136.879 158.613C136.879 158.613 137.331 158.331 138.036 157.881C138.374 157.685 138.769 157.403 139.192 157.122C139.615 156.841 140.066 156.531 140.517 156.222C141.42 155.603 142.266 154.928 142.914 154.422C143.563 153.916 143.986 153.579 143.986 153.579L128.476 134.455C127.545 133.302 125.881 133.077 124.669 133.921L124.641 133.977Z" fill="#615BF5"/>
<path d="M134.793 123.937C133.947 125.146 134.173 126.806 135.301 127.734L154.449 143.201C154.449 143.201 154.787 142.779 155.295 142.133C155.802 141.486 156.479 140.642 157.099 139.742C157.41 139.292 157.72 138.842 158.002 138.42C158.284 137.998 158.566 137.605 158.763 137.267C159.186 136.564 159.496 136.114 159.496 136.114L138.572 123.15C137.303 122.362 135.667 122.7 134.821 123.909L134.793 123.937Z" fill="#01EACB"/>
<path d="M112.458 139.912C111.245 140.277 110.54 141.515 110.85 142.724L113.529 153.467C113.529 153.467 113.896 153.382 114.432 153.214C114.714 153.129 115.024 153.045 115.362 152.961C115.701 152.876 116.067 152.792 116.406 152.651C117.111 152.426 117.816 152.201 118.352 152.033C118.605 151.948 118.831 151.864 118.972 151.808C119.113 151.751 119.198 151.723 119.198 151.723L115.391 141.318C114.968 140.165 113.699 139.518 112.514 139.883L112.458 139.912Z" fill="#615BF5"/>
<path d="M178.193 97.4171C178.165 96.6859 178.165 95.9548 178.136 95.2798C178.08 94.6049 178.052 93.958 177.995 93.4237C177.967 92.8894 177.911 92.4113 177.911 92.1019C177.883 91.7926 177.854 91.5957 177.854 91.5957L144.691 94.858C143.479 94.9704 142.604 96.011 142.661 97.2203C142.689 97.8952 142.717 98.5702 142.717 99.2451V99.2733C142.717 100.483 143.676 101.495 144.889 101.551L178.136 103.21C178.136 103.21 178.165 103.042 178.165 102.704C178.165 102.395 178.193 101.945 178.193 101.382C178.193 100.848 178.221 100.201 178.221 99.5264C178.249 98.8795 178.193 98.1483 178.193 97.4171Z" fill="#615BF5"/>
<path d="M21.8218 103.014C21.85 103.464 21.8782 103.942 21.9064 104.363C21.9628 105.235 22.0192 106.051 22.0756 106.754L22.3576 109.06C22.3576 109.088 22.3858 109.088 22.3858 109.088L55.0414 104.954C56.5924 104.757 57.7204 103.379 57.6076 101.832C57.5512 100.961 57.523 100.089 57.523 99.217C57.523 97.6421 56.2822 96.3203 54.703 96.2079L21.9346 94.0986C21.9346 94.0986 21.9064 94.3236 21.8782 94.7455C21.8782 94.9423 21.85 95.1954 21.8218 95.4767C21.8218 95.7579 21.7936 96.0954 21.7936 96.4328C21.7654 97.1359 21.7654 97.9515 21.7372 98.8514C21.709 99.7232 21.7654 100.679 21.7936 101.607C21.7936 102.086 21.8218 102.564 21.8218 103.014Z" fill="#615BF5"/>
<path d="M64.9968 123.262C64.3764 122.362 63.1356 122.109 62.205 122.671L11.8115 154C11.8115 154 12.1217 154.506 12.6293 155.294C13.1087 156.081 13.7855 157.066 14.4905 158.05C15.1955 159.034 15.8723 160.047 16.4081 160.778C16.9721 161.509 17.3387 161.987 17.3387 161.987L64.5738 126.102C65.448 125.427 65.6454 124.218 65.025 123.318L64.9968 123.262Z" fill="#615BF5"/>
<path d="M100.134 141.739C99.344 141.739 98.5544 141.711 97.7648 141.682C96.665 141.626 95.7061 142.442 95.5933 143.539L92.2939 176.92C92.2939 176.92 92.4631 176.949 92.8015 176.977C93.1117 177.005 93.5629 177.033 94.1269 177.061C94.6627 177.089 95.3113 177.145 95.9881 177.202C96.665 177.23 97.3982 177.258 98.1314 177.258C98.8646 177.258 99.5978 177.314 100.275 177.286C100.951 177.258 101.6 177.258 102.136 177.258C102.672 177.23 103.151 177.23 103.461 177.23C103.771 177.23 103.969 177.202 103.969 177.202L102.277 143.707C102.22 142.61 101.318 141.739 100.19 141.739H100.134Z" fill="#01EACB"/>
<path d="M69.8756 129.168C68.8886 128.184 67.2812 128.128 66.2378 129.056L52.6172 141.092C52.6172 141.092 52.7018 141.177 52.8146 141.346C52.9556 141.514 53.153 141.711 53.3786 141.964C53.858 142.47 54.5066 143.145 55.1552 143.82C55.832 144.467 56.5088 145.114 57.0164 145.592C57.2702 145.845 57.4676 146.042 57.6368 146.183C57.806 146.323 57.8906 146.38 57.8906 146.38L70.0166 132.852C70.9472 131.812 70.919 130.209 69.932 129.225L69.8756 129.168Z" fill="#615BF5"/>
<path d="M85.8071 139.265C83.1845 138.337 80.3081 139.518 79.0955 141.993L70.5791 159.429C70.5791 159.429 70.8047 159.541 71.1713 159.71C71.3687 159.794 71.5943 159.935 71.8481 160.048C72.1301 160.16 72.4121 160.301 72.7505 160.441C73.4273 160.723 74.1887 161.088 75.0347 161.397C75.8807 161.707 76.7831 162.044 77.6855 162.41C78.6161 162.719 79.5185 163 80.3927 163.282C80.8157 163.422 81.2387 163.535 81.6335 163.647C82.0283 163.76 82.4231 163.844 82.7615 163.957C83.4665 164.154 84.0305 164.322 84.4535 164.378C84.8765 164.463 85.1021 164.519 85.1021 164.519L89.3885 145.621C90.0089 142.921 88.4861 140.221 85.8917 139.293L85.8071 139.265Z" fill="#615BF5"/>
<path d="M152.079 41.0868C152.22 41.1993 152.445 41.3962 152.699 41.6212C153.207 42.0993 153.94 42.8023 154.814 43.6179C155.265 44.0397 155.717 44.4897 156.196 44.9959C156.675 45.5021 157.183 46.0365 157.691 46.5708C158.226 47.1051 158.706 47.7238 159.242 48.3144C159.749 48.905 160.285 49.5237 160.793 50.1424C161.3 50.7892 161.78 51.4079 162.259 52.0266C162.513 52.336 162.738 52.6453 162.992 52.9547C163.218 53.264 163.443 53.5734 163.669 53.8827C164.543 55.1202 165.361 56.2732 165.981 57.3137C166.63 58.3262 167.166 59.198 167.532 59.7886C167.871 60.4073 168.068 60.7447 168.068 60.7447L181.097 53.3765C181.097 53.3765 180.871 52.9547 180.448 52.2235C180.025 51.4923 179.376 50.4799 178.615 49.2706C177.854 48.0332 176.895 46.6833 175.851 45.1928C175.598 44.8272 175.344 44.4335 175.062 44.0679C174.78 43.7023 174.498 43.3367 174.216 42.9429C173.624 42.2118 173.031 41.4524 172.439 40.6931C171.819 39.9619 171.198 39.2307 170.578 38.5277C169.958 37.8246 169.365 37.0934 168.745 36.4466C168.125 35.7997 167.532 35.181 166.968 34.5623C166.404 33.9717 165.869 33.4093 165.333 32.9312C164.289 31.9469 163.415 31.1313 162.823 30.5408C162.513 30.2595 162.259 30.0345 162.09 29.8939C161.921 29.7533 161.836 29.6689 161.836 29.6689L151.881 40.8619C151.853 40.89 151.938 40.9462 152.079 41.0868Z" fill="#FFFA77"/>
<path d="M54.9017 51.8584C55.3247 51.4646 55.8041 50.9584 56.3681 50.4803C56.9321 50.0022 57.5243 49.496 58.1165 48.9898L58.5677 48.5961C58.7087 48.4836 58.8779 48.343 59.0189 48.2305C59.3291 48.0055 59.6111 47.7524 59.9213 47.5274C60.5135 47.0775 61.0493 46.6556 61.5287 46.3181C62.4876 45.6432 63.1362 45.1932 63.1362 45.1932L54.7607 32.9316C54.7607 32.9316 53.9711 33.4941 52.7867 34.3097C52.1945 34.7315 51.5459 35.2377 50.8127 35.8002C50.4461 36.0814 50.0795 36.3626 49.7129 36.6439C49.5155 36.7845 49.3463 36.9251 49.1489 37.0938C48.9797 37.2626 48.7823 37.4032 48.6131 37.5719C47.8799 38.1906 47.1467 38.8093 46.4699 39.3999C45.7931 39.9905 45.2009 40.5811 44.6651 41.0592C44.1575 41.5654 43.7063 41.9591 43.3961 42.2684C43.3679 42.2966 43.3397 42.3247 43.3115 42.3528L43.2833 42.3247C43.2833 42.3247 43.2269 42.3809 43.1141 42.4934C43.0295 42.5778 42.9449 42.6622 42.8321 42.7747C42.5501 43.084 42.1271 43.5059 41.6195 44.0402C41.1401 44.5745 40.5479 45.1651 39.9557 45.8401C39.3635 46.515 38.7431 47.2462 38.1227 47.9774C37.9535 48.1461 37.8125 48.343 37.6433 48.5117C37.5023 48.7086 37.3613 48.8773 37.1921 49.0742C36.9101 49.4398 36.6281 49.8054 36.3461 50.171C35.8103 50.8741 35.2745 51.549 34.8515 52.1396C34.0337 53.3207 33.4697 54.1082 33.4697 54.1082L45.7649 62.4607C45.7649 62.4607 46.2161 61.8139 46.8929 60.8577C47.2313 60.3796 47.6543 59.8453 48.1055 59.2547C48.3311 58.9734 48.5567 58.6641 48.8105 58.3547C48.9233 58.2141 49.0361 58.0454 49.1771 57.9048L49.5719 57.4548C50.0795 56.8642 50.5871 56.2736 51.0665 55.7112C51.5459 55.1487 52.0253 54.6706 52.4483 54.2488C52.8431 53.827 53.1815 53.4614 53.4353 53.2083C53.4635 53.1801 53.4917 53.152 53.4917 53.152L53.5199 53.1801C53.5199 53.1801 53.5763 53.1239 53.6609 53.0395C53.7173 52.9833 53.8019 52.8989 53.9147 52.8145C54.1121 52.5896 54.4787 52.2521 54.9017 51.8584Z" fill="#0CA7FF"/>
<path d="M87.5008 33.5225C87.8956 33.4662 88.4032 33.3819 88.9108 33.2694C89.4184 33.185 89.9542 33.1006 90.3208 33.0444C90.7156 32.9882 90.9694 32.96 90.9694 32.96L86.5138 0C86.5138 0 86.119 0.0562458 85.555 0.112492C84.9628 0.19686 84.2014 0.337475 83.44 0.449966C82.6786 0.590581 81.889 0.703072 81.325 0.815564C80.761 0.899933 80.3662 1.01242 80.3662 1.01242L86.8522 33.635C86.8522 33.635 87.106 33.5787 87.5008 33.5225Z" fill="#FFFA77"/>
<path d="M122.102 33.0439C122.412 33.1564 122.892 33.297 123.428 33.4939C123.963 33.6908 124.612 33.9439 125.289 34.197C125.627 34.3376 125.994 34.4501 126.332 34.5907C126.671 34.7313 127.037 34.9 127.404 35.0407C128.109 35.35 128.842 35.6594 129.491 35.9406C130.139 36.2499 130.76 36.5593 131.267 36.8124C131.803 37.0655 132.226 37.2905 132.536 37.4311C132.846 37.5998 133.016 37.6842 133.016 37.6842L139.53 25.5632C139.53 25.5632 139.332 25.4507 138.966 25.2539C138.599 25.1133 138.063 24.8602 137.443 24.5508C136.823 24.2415 136.089 23.8759 135.3 23.5103C134.51 23.1728 133.636 22.7791 132.79 22.4135C132.367 22.2166 131.944 22.0479 131.521 21.8791C131.098 21.7104 130.675 21.5417 130.252 21.4011C129.434 21.0917 128.673 20.8105 128.024 20.5574C127.376 20.3043 126.812 20.1636 126.417 20.023C126.022 19.9105 125.796 19.8262 125.796 19.8262L121.566 32.9033C121.595 32.8752 121.764 32.9314 122.102 33.0439Z" fill="#01EACB"/>
<path d="M160.652 61.3644C160.341 60.8301 159.975 60.2957 159.636 59.7333C159.298 59.1708 158.931 58.6365 158.621 58.1021C158.283 57.5959 157.944 57.146 157.662 56.7241C157.098 55.9367 156.732 55.4023 156.732 55.4023L140.319 67.3265C140.319 67.3265 140.601 67.7202 140.996 68.2826C141.194 68.5639 141.447 68.9013 141.701 69.2669C141.927 69.6325 142.181 70.0262 142.434 70.4481C142.688 70.8418 142.942 71.2355 143.168 71.6293C143.393 72.023 143.591 72.3604 143.76 72.6698C144.098 73.2885 144.324 73.6822 144.324 73.6822L162.287 64.2329C162.287 64.2329 161.977 63.6705 161.498 62.7987C161.216 62.4049 160.962 61.8987 160.652 61.3644Z" fill="#01EACB"/>
<path d="M164.459 111.058C164.402 111.311 164.374 111.648 164.261 112.042C164.064 112.858 163.838 113.954 163.585 115.051C163.303 116.12 162.992 117.217 162.767 118.032C162.513 118.82 162.344 119.354 162.344 119.354L193.279 129.281C193.279 129.281 193.533 128.494 193.928 127.285C194.294 126.075 194.717 124.472 195.14 122.841C195.535 121.21 195.874 119.579 196.156 118.342C196.297 117.723 196.353 117.217 196.438 116.851C196.494 116.486 196.522 116.289 196.522 116.289L164.515 110.664C164.543 110.692 164.515 110.833 164.459 111.058Z" fill="#0CA7FF"/>
<path d="M170.775 150.486C171.057 150.064 171.48 149.474 171.988 148.771C173.003 147.365 174.216 145.396 175.428 143.427C175.992 142.415 176.556 141.402 177.092 140.474C177.374 139.996 177.6 139.546 177.825 139.096C178.051 138.646 178.248 138.225 178.446 137.831C178.841 137.043 179.151 136.397 179.376 135.947C179.574 135.497 179.687 135.215 179.687 135.215L167.786 129.872C167.786 129.872 167.673 130.097 167.504 130.491C167.335 130.884 167.053 131.419 166.715 132.094C166.545 132.431 166.376 132.769 166.179 133.162C165.981 133.528 165.784 133.95 165.558 134.344C165.107 135.159 164.628 136.003 164.148 136.875C162.146 140.278 159.806 143.427 159.806 143.427L170.296 151.161C170.296 151.105 170.493 150.88 170.775 150.486Z" fill="#01EACB"/>
<path d="M60.3996 166.599C59.7792 166.234 58.9332 165.699 57.918 165.052C56.8746 164.434 55.7466 163.59 54.4776 162.746C54.1674 162.521 53.8572 162.325 53.547 162.071C53.2368 161.846 52.9266 161.593 52.6164 161.34C51.996 160.862 51.3474 160.356 50.727 159.878C50.1066 159.372 49.4862 158.837 48.894 158.331C48.3018 157.797 47.6814 157.319 47.1456 156.784C46.6098 156.278 46.074 155.772 45.5664 155.294C45.0588 154.816 44.5794 154.366 44.1846 153.916C43.3668 153.044 42.6618 152.313 42.1824 151.807C41.9286 151.553 41.7594 151.357 41.6466 151.188C41.5338 151.047 41.4492 150.963 41.4492 150.963L30.2256 160.89C30.2256 160.89 30.3102 160.975 30.4512 161.143C30.5922 161.312 30.8178 161.565 31.0998 161.875C31.6638 162.493 32.5098 163.337 33.4968 164.378C33.9762 164.912 34.5402 165.446 35.1324 166.009C35.7246 166.571 36.345 167.162 37.0218 167.78C37.6704 168.399 38.3754 168.99 39.1086 169.608C39.8136 170.227 40.5468 170.846 41.28 171.465C42.0414 172.055 42.8028 172.646 43.536 173.236C43.9026 173.517 44.2974 173.799 44.664 174.08C45.0306 174.361 45.4254 174.614 45.792 174.867C47.2866 175.908 48.6402 176.864 49.881 177.623C51.0936 178.383 52.137 179.03 52.842 179.451C53.5752 179.873 53.9982 180.098 53.9982 180.098L61.3866 167.105C61.3584 167.134 61.02 166.937 60.3996 166.599Z" fill="#01EACB"/>
<path d="M33.554 89.6276C33.6104 89.2338 33.695 88.7276 33.7796 88.2214C33.8642 87.7152 33.9488 87.1809 34.0334 86.8153C34.0898 86.4216 34.1462 86.1685 34.1462 86.1685L1.43415 79.7002C1.43415 79.7002 1.34955 80.0939 1.23675 80.6564C1.12395 81.2188 1.01115 82.0063 0.870146 82.7656C0.757346 83.5249 0.616345 84.3123 0.531745 84.8748C0.475345 85.4373 0.418945 85.831 0.418945 85.831L33.4694 90.2744C33.4694 90.2744 33.4976 90.0213 33.554 89.6276Z" fill="#01EACB"/>
<path d="M37.9812 131.727C37.8402 131.418 37.6146 130.996 37.3608 130.462C37.107 129.927 36.7968 129.337 36.4866 128.69C36.2046 128.015 35.8944 127.312 35.5842 126.609C35.4432 126.243 35.274 125.906 35.133 125.54C34.992 125.174 34.851 124.837 34.7382 124.5C34.4844 123.825 34.2306 123.178 34.0332 122.643C33.8358 122.109 33.6948 121.631 33.582 121.322C33.4692 121.012 33.4128 120.815 33.4128 120.815L20.2998 125.034C20.2998 125.034 20.3844 125.259 20.4972 125.653C20.6382 126.046 20.7792 126.581 21.033 127.256C21.2868 127.902 21.5688 128.662 21.879 129.477C22.0482 129.871 22.1892 130.293 22.3584 130.743C22.5276 131.165 22.725 131.587 22.8942 132.008C23.2608 132.852 23.6274 133.724 23.994 134.511C24.3888 135.299 24.7272 136.03 25.0374 136.649C25.3476 137.267 25.6014 137.802 25.7988 138.167C25.9962 138.533 26.109 138.73 26.109 138.73L38.2632 132.233C38.235 132.205 38.1504 132.036 37.9812 131.727Z" fill="#FFFA77"/>
<path d="M57.3276 156.786C57.7224 157.067 58.2018 157.376 58.7094 157.742C59.217 158.079 59.781 158.417 60.345 158.754C60.909 159.092 61.4448 159.457 61.9806 159.767C62.5164 160.076 63.024 160.357 63.447 160.582C64.293 161.06 64.8852 161.37 64.8852 161.37L74.3604 143.455C74.3604 143.455 73.9374 143.23 73.3452 142.893C73.035 142.724 72.6684 142.527 72.3018 142.302C71.907 142.077 71.5404 141.824 71.1174 141.571C70.7226 141.318 70.3278 141.065 69.933 140.84C69.5664 140.587 69.228 140.362 68.946 140.137C68.3538 139.743 67.9872 139.462 67.9872 139.462L56.0304 155.829C56.0022 155.858 56.538 156.223 57.3276 156.786Z" fill="#01EACB"/>
<path d="M118.774 161.903C117.956 162.128 116.885 162.41 115.785 162.719C114.685 162.972 113.585 163.197 112.768 163.394C112.345 163.478 112.006 163.534 111.781 163.591C111.527 163.619 111.414 163.647 111.414 163.647L117.054 195.566C117.054 195.566 117.251 195.538 117.618 195.482C117.985 195.426 118.492 195.341 119.113 195.201C120.353 194.948 121.989 194.582 123.625 194.188C125.26 193.767 126.868 193.317 128.08 192.979C129.293 192.585 130.082 192.332 130.082 192.332L120.128 161.481C120.128 161.481 119.592 161.65 118.774 161.903Z" fill="#01EACB"/>
<path d="M137.613 163.254C136.738 163.732 135.892 164.21 135.075 164.66C134.68 164.885 134.285 165.082 133.89 165.279C133.524 165.475 133.157 165.644 132.819 165.813C132.142 166.15 131.606 166.404 131.211 166.6C130.816 166.769 130.591 166.882 130.591 166.882L135.949 178.749C135.949 178.749 136.203 178.637 136.682 178.44C137.133 178.215 137.782 177.906 138.571 177.512C138.966 177.315 139.389 177.118 139.84 176.893C140.292 176.668 140.771 176.443 141.222 176.162C142.181 175.628 143.196 175.065 144.183 174.503C146.157 173.294 148.131 172.084 149.541 171.072C150.246 170.566 150.838 170.172 151.261 169.863C151.684 169.581 151.91 169.385 151.91 169.385L144.155 158.923C144.183 158.923 141.025 161.257 137.613 163.254Z" fill="#FFFA77"/>
<path fill-rule="evenodd" clip-rule="evenodd" d="M113.674 92.6973L99.1791 84.3447C93.8211 81.2512 87.1377 85.1041 87.1377 91.2911V107.996C87.1377 114.155 93.8211 118.008 99.1791 114.942L113.674 106.59C119.032 103.468 119.032 95.7626 113.674 92.6973Z" fill="#FF1E6F"/>
</svg>
